# xmcd
#
# Track frame offsets:
#	150
#	13950
#	30512
#	46335
#	61508
#	76235
#	91373
#	108023
#	122498
#	135081
#
# Disc length: 2043 seconds
#
# Revision: 1
# Processed by: cddbd v1.5.2PL0 Copyright (c) Steve Scherf et al.
# Submitted via: audiograbber 1.83.01
#
DISCID=6707f90a
DTITLE=Naima Husseini - Oben ist Unten
DYEAR=2011
DGENRE=pop
TTITLE0=oben ist unten
TTITLE1=au revoir tristesse
TTITLE2=mir fehlt nichts
TTITLE3=ohne dich
TTITLE4=wiedersehen
TTITLE5=du willst mehr
TTITLE6=vermisst
TTITLE7=ein schritt vor
TTITLE8=komm mit
TTITLE9=unterwgs
EXTD=
EXTT0=
EXTT1=
EXTT2=
EXTT3=
EXTT4=
EXTT5=
EXTT6=
EXTT7=
EXTT8=
EXTT9=
PLAYORDER=
